<svg width="22" height="20" viewBox="0 0 22 20" fill="none" xmlns="http://www.w3.org/2000/svg">
<path d="M8.44604 1.71387C9.55853 0.864156 11.3587 0.767983 12.5974 1.46289L12.8367 1.6123H12.8376L18.6785 5.64258C19.0743 5.91588 19.4755 6.38664 19.7791 6.95996C20.0829 7.53394 20.2439 8.12603 20.2439 8.59961V15.3799C20.2438 17.3643 18.6057 18.9998 16.5593 19H5.62769C3.58412 18.9999 1.94335 17.3573 1.94312 15.3701V8.46973L1.94995 8.30078C1.98136 7.89351 2.12214 7.40243 2.36499 6.91602C2.60738 6.4306 2.91847 6.01569 3.23315 5.73438L3.36792 5.62207L8.44507 1.71289L8.44604 1.71387ZM11.0935 11.25C10.1386 11.25 9.33276 12.0246 9.33276 13V16C9.33293 16.9752 10.1387 17.75 11.0935 17.75C12.0482 17.75 12.8541 16.9752 12.8542 16V13C12.8542 12.0855 12.1457 11.3473 11.2703 11.2588L11.0935 11.25Z" stroke="#191919" stroke-width="2"/>
</svg>
