<svg width="24" height="25" viewBox="0 0 24 25" fill="none" xmlns="http://www.w3.org/2000/svg">
<path d="M9.41577 3.78613C10.5034 2.92038 12.2538 2.82496 13.4607 3.53223L13.6951 3.68457V3.68555L19.4548 7.83496V7.83594C19.8439 8.11647 20.2432 8.6025 20.5457 9.19922C20.8476 9.79491 21.0095 10.4153 21.0095 10.918V17.9014C21.0095 20.0035 19.3603 21.6599 17.3904 21.6602H6.61011C4.64292 21.6602 2.99016 19.9966 2.98999 17.8916V10.7842L2.99683 10.6045C3.02868 10.1736 3.17062 9.65994 3.41187 9.15527C3.65329 8.65026 3.96259 8.22084 4.27319 7.93066L4.40601 7.81445H4.40698L9.41675 3.78711L9.41577 3.78613ZM11.9998 13.6777C11.0099 13.6779 10.2498 14.5038 10.2498 15.4502V18.54C10.2498 19.4865 11.0099 20.3124 11.9998 20.3125C12.9897 20.3125 13.7498 19.4866 13.7498 18.54V15.4502C13.7498 14.5627 13.0817 13.7815 12.1824 13.6875L11.9998 13.6777Z" stroke="#191919" stroke-width="2"/>
</svg>
