<svg width="22" height="20" viewBox="0 0 22 20" fill="none" xmlns="http://www.w3.org/2000/svg">
<path d="M8.44617 1.71387C9.55866 0.864156 11.3588 0.767983 12.5975 1.46289L12.8368 1.6123H12.8378L18.6786 5.64258C19.0744 5.91588 19.4756 6.38664 19.7792 6.95996C20.083 7.53394 20.244 8.12603 20.244 8.59961V15.3799C20.2439 17.3643 18.6059 18.9998 16.5594 19H5.62781C3.58424 18.9999 1.94347 17.3573 1.94324 15.3701V8.46973L1.95007 8.30078C1.98149 7.89351 2.12226 7.40243 2.36511 6.91602C2.6075 6.4306 2.91859 6.01569 3.23328 5.73438L3.36804 5.62207L8.44519 1.71289L8.44617 1.71387ZM11.0936 11.25C10.1388 11.25 9.33289 12.0246 9.33289 13V16C9.33305 16.9752 10.1389 17.75 11.0936 17.75C12.0484 17.75 12.8542 16.9752 12.8544 16V13C12.8544 12.0855 12.1458 11.3473 11.2704 11.2588L11.0936 11.25Z" fill="#191919" stroke="#191919" stroke-width="2"/>
</svg>
