<svg width="21" height="31" viewBox="0 0 21 31" fill="none" xmlns="http://www.w3.org/2000/svg">
<path d="M10.5297 10.7116C13.1692 10.7116 15.309 8.5376 15.309 5.85581C15.309 3.17402 13.1692 1 10.5297 1C7.89025 1 5.75052 3.17402 5.75052 5.85581C5.75052 8.5376 7.89025 10.7116 10.5297 10.7116Z" stroke="#191919" stroke-width="2" stroke-linecap="round" stroke-linejoin="round"/>
<path d="M19.3277 24.8949C17.0337 30.1305 10.5001 29.6989 10.5001 29.6989C10.5001 29.6989 3.96206 30.1132 1.67229 24.8949C1.22913 23.891 1 22.8032 1 21.703C1 20.6027 1.22913 19.5151 1.67229 18.5112C3.96206 13.2755 10.5001 13.7071 10.5001 13.7071C10.5001 13.7071 17.0337 13.2928 19.3277 18.5112C19.7709 19.5151 20 20.6027 20 21.703C20 22.8032 19.7709 23.891 19.3277 24.8949Z" stroke="#191919" stroke-width="2" stroke-linecap="round" stroke-linejoin="round"/>
</svg>
