<svg width="19" height="19" viewBox="0 0 19 19" fill="none" xmlns="http://www.w3.org/2000/svg">
<path d="M1.03069 17.2216L9.40138 9.10987L13.9973 13.503C14.2647 13.7583 14.5872 13.9501 14.9283 14.0566C15.2694 14.1632 15.6156 14.1802 15.9281 14.106C16.2405 14.0317 16.5067 13.8691 16.6967 13.6364C16.8867 13.4036 16.993 13.1101 17.0036 12.7887L17.2377 5.66462C17.2549 5.16264 17.1475 4.63953 16.924 4.13637C16.7004 3.63322 16.3669 3.16371 15.9493 2.76457C15.5317 2.36542 15.0415 2.04753 14.5172 1.83584C13.9929 1.62415 13.4486 1.52436 12.9272 1.54438L5.52685 1.81852C5.19302 1.8309 4.88877 1.93516 4.64827 2.11964C4.40777 2.30411 4.2406 2.56139 4.1656 2.8626C4.09061 3.16381 4.1107 3.49696 4.22371 3.82451C4.33673 4.15206 4.53821 4.46105 4.80532 4.71664L5.78396 5.65209" stroke="white" stroke-width="2" stroke-linecap="round" stroke-linejoin="round"/>
</svg>
