<svg width="24" height="24" viewBox="0 0 24 24" fill="none" xmlns="http://www.w3.org/2000/svg">
<path d="M2.57663 9.67648L2.57058 9.67042C2.54655 9.64639 2.52167 9.62399 2.49488 9.60222L2.48879 9.59727L2.4831 9.59186C2.09415 9.22158 1.83963 8.70988 1.80438 8.13933L1.80226 8.10509L1.81168 8.07209L2.93968 4.12109L2.9397 4.12106C3.33022 2.75421 4.59469 1.8 6.017 1.8H7H7.2V2V4C7.2 4.44154 7.55846 4.8 8 4.8C8.44154 4.8 8.8 4.44154 8.8 4V2V1.8H9H15H15.2V2V4C15.2 4.44167 15.5576 4.8 16 4.8C16.4424 4.8 16.8 4.44167 16.8 4V2V1.8H17H17.982C19.4033 1.8 20.6688 2.75417 21.0593 4.12106L22.1883 8.07205L22.1978 8.10511L22.1956 8.13943C22.1241 9.28818 21.1663 10.201 20 10.201H19.9998L19 10.2L2.57663 9.67648ZM2.57663 9.67648L2.58319 9.68199M2.57663 9.67648L2.58319 9.68199M2.58319 9.68199C2.9656 10.004 3.46076 10.2 4 10.2H5C6.21346 10.2 7.2 9.21346 7.2 8C7.2 7.55846 7.55846 7.2 8 7.2C8.44154 7.2 8.8 7.55846 8.8 8C8.8 9.21346 9.78654 10.2 11 10.2H13C14.2135 10.2 15.2 9.21346 15.2 8C15.2 7.55833 15.5576 7.2 16 7.2C16.4424 7.2 16.8 7.55833 16.8 8C16.8 9.21339 17.7864 10.1999 18.9998 10.2L2.58319 9.68199ZM22.105 22.8848C22.008 22.8581 21.904 22.8326 21.8 22.8166V11.873V11.6145L21.5498 11.6794C21.4109 11.7154 21.1159 11.7465 20.7959 11.7681C20.4822 11.7892 20.1668 11.8 20 11.8H19C17.8659 11.8 16.8468 11.3016 16.1501 10.5108L16.0001 10.3406L15.8501 10.5106C15.7966 10.5712 15.7025 10.6461 15.5726 10.7313C15.4454 10.8147 15.2952 10.9007 15.1386 10.9853C15.0049 11.0576 14.8611 11.1315 14.7262 11.2009C14.5582 11.2872 14.404 11.3665 14.2997 11.427L14.2 11.4848V11.6V20C14.2 21.0683 13.9112 21.8875 13.3828 22.4389C12.8557 22.9889 12.0638 23.3 11 23.3H8H5C3.93595 23.3 3.117 22.9887 2.56417 22.4358C2.01134 21.883 1.7 21.0641 1.7 20V10.643V10.5675L1.65007 10.5108C1.61169 10.4672 1.57259 10.4231 1.53301 10.3784C1.24724 10.0559 0.936028 9.70472 0.683174 9.32533C0.395351 8.89348 0.2 8.44883 0.2 8C0.2 7.92701 0.211001 7.85235 0.231447 7.77945C0.23148 7.77933 0.231514 7.77921 0.231548 7.77909L1.40128 3.68103C1.98773 1.63181 3.88631 0.2 6.017 0.2H17.982C20.1128 0.2 22.0122 1.63186 22.5977 3.68094L22.5977 3.68098L23.7694 7.77909C23.7695 7.77922 23.7695 7.77935 23.7696 7.77948C23.7896 7.85097 23.8 7.92564 23.8 8C23.8 8.9613 23.4411 9.84071 22.85 10.5107L22.8 10.5674V10.643V23C22.8 23.0212 22.798 23.0347 22.7963 23.0426C22.7624 23.0496 22.6888 23.0456 22.5551 23.0128C22.4745 22.993 22.3956 22.9695 22.3101 22.9441C22.2465 22.9252 22.1793 22.9052 22.105 22.8848ZM3 17.3H2.8V17.5V20C2.8 21.2135 3.78654 22.2 5 22.2H11C12.2135 22.2 13.2 21.2135 13.2 20V17.5V17.3H13H8H3ZM13 16.2H13.2V16V12V11.8H13H11C9.86599 11.8 8.84777 11.3016 8.14998 10.5107L8.00009 10.3408L7.8501 10.5106C7.15221 11.3007 6.13391 11.8 5 11.8H4C3.67208 11.8 3.35395 11.7582 3.05021 11.6794L2.8 11.6145V11.873V16V16.2H3H13Z" fill="black" stroke="black" stroke-width="0.4"/>
</svg>
