<svg width="12" height="11" viewBox="0 0 12 11" fill="none" xmlns="http://www.w3.org/2000/svg">
<path fill-rule="evenodd" clip-rule="evenodd" d="M7.54678 0.981524L10.4902 3.92499C11.3445 4.77926 11.3445 6.16431 10.4902 7.01858L7.54678 9.96205C6.69251 10.8163 5.30746 10.8163 4.45319 9.96205L1.50972 7.01858C0.655453 6.16431 0.655449 4.77926 1.50972 3.92499L4.45319 0.981524C5.30746 0.127254 6.69251 0.12725 7.54678 0.981524ZM6.30934 2.21896C6.13849 2.04811 5.86148 2.04811 5.69063 2.21896L2.74716 5.16243C2.5763 5.33328 2.57631 5.61029 2.74716 5.78115L5.69063 8.72461C5.86148 8.89547 6.13849 8.89547 6.30934 8.72461L9.25281 5.78115C9.42367 5.61029 9.42367 5.33328 9.25281 5.16243L6.30934 2.21896Z" fill="black"/>
</svg>
