<svg width="30" height="25" viewBox="0 0 30 25" fill="none" xmlns="http://www.w3.org/2000/svg">
<path d="M21.25 23.375V20.9583C21.25 19.6765 20.7232 18.4471 19.7855 17.5407C18.8479 16.6342 17.5761 16.125 16.25 16.125H6.25C4.92392 16.125 3.65215 16.6342 2.71447 17.5407C1.77678 18.4471 1.25 19.6765 1.25 20.9583V23.375M28.75 23.375V20.9583C28.7492 19.8874 28.3804 18.8471 27.7017 18.0007C27.023 17.1543 26.0727 16.5498 25 16.2821M20 1.78208C21.0755 2.04828 22.0288 2.65293 22.7095 3.50071C23.3903 4.34849 23.7598 5.39117 23.7598 6.46438C23.7598 7.53758 23.3903 8.58026 22.7095 9.42804C22.0288 10.2758 21.0755 10.8805 20 11.1467M16.25 6.45833C16.25 9.12771 14.0114 11.2917 11.25 11.2917C8.48858 11.2917 6.25 9.12771 6.25 6.45833C6.25 3.78896 8.48858 1.625 11.25 1.625C14.0114 1.625 16.25 3.78896 16.25 6.45833Z" stroke="#191919" stroke-width="1.5" stroke-linecap="round" stroke-linejoin="round"/>
</svg>
